<svg xmlns="http://www.w3.org/2000/svg" width="18" height="18" viewBox="0 0 18 18">
    <g fill="none" fill-rule="evenodd" opacity=".5">
        <path d="M0 0L20 0 20 20 0 20z" transform="translate(-1 -1)"/>
        <path fill="#000" fill-rule="nonzero" d="M13.08 1H6.17c-.455 0-.824.369-.824.823v2.233H1.891c-.455 0-.824.369-.824.823v13.298c0 .454.369.823.824.823h15.468c.455 0 .823-.369.823-.823V7.937c0-.454-.368-.823-.823-.823h-3.455v-5.29c0-.455-.369-.824-.823-.824zM4.736 16.467c0 .235-.19.426-.426.426h-.982c-.235 0-.426-.191-.426-.426v-.983c.002-.233.192-.421.426-.421h.982c.235 0 .426.19.426.425v.979zm0-3.056c0 .235-.19.425-.426.425h-.982c-.235 0-.426-.19-.426-.425v-.983c0-.113.045-.221.125-.3.08-.08.188-.125.3-.125h.983c.235 0 .426.19.426.425v.983zm0-3.057c0 .235-.19.426-.426.426h-.982c-.113 0-.221-.045-.301-.125-.08-.08-.125-.188-.125-.3v-.983c0-.235.19-.426.426-.426h.982c.235 0 .426.19.426.426v.982zm0-3.056c0 .113-.045.221-.125.301-.08.08-.188.125-.3.125h-.983c-.113 0-.221-.045-.301-.125-.08-.08-.125-.188-.125-.3v-.983c0-.235.19-.426.426-.426h.982c.235 0 .426.19.426.426v.982zm4.279 9.169c0 .235-.19.426-.426.426h-.982c-.233-.005-.419-.194-.418-.426v-.983c.001-.23.187-.417.418-.421h.982c.235 0 .426.19.426.425v.979zm0-3.056c0 .235-.19.425-.426.425h-.982c-.233-.004-.419-.193-.418-.425v-.983c0-.113.044-.221.124-.3.08-.08.188-.125.301-.125h.983c.235 0 .425.19.425.425l-.007.983zm0-3c0 .235-.19.425-.426.425h-.982c-.234-.004-.42-.195-.419-.43v-.982c0-.235.191-.425.426-.425h.983c.235 0 .425.19.425.425l-.007.987zm.95-2.905h-.678c-.207 0-.375-.168-.375-.375V5.94H7.718c-.207 0-.375-.168-.375-.375v-.688c0-.207.168-.375.375-.375h1.183V3.308c0-.207.168-.375.375-.375h.679c.207 0 .375.168.375.375v1.183h1.183c.207 0 .375.168.375.375v.679c0 .207-.168.375-.375.375H10.35v1.183c.008.106-.03.21-.103.287-.073.077-.175.12-.282.116zm2.098 8.96c0 .236-.19.427-.425.427h-.975c-.235 0-.426-.191-.426-.426v-.983c.002-.233.192-.421.426-.421h.982c.231.004.417.19.418.421v.983zm0-3.055c0 .235-.19.425-.425.425h-.975c-.235 0-.426-.19-.426-.425v-.983c0-.113.045-.221.125-.3.08-.08.188-.125.3-.125h.983c.233.004.419.193.418.425v.983zm0-3c0 .113-.044.22-.124.3-.08.08-.188.125-.301.125h-.975c-.113 0-.221-.045-.301-.124-.08-.08-.125-.188-.125-.301v-.987c0-.235.19-.425.426-.425h.982c.233.004.419.193.418.425v.987zM14.5 9.374c0-.235.19-.426.426-.426h.982c.235 0 .426.19.426.426v.982c0 .235-.19.426-.426.426h-.967c-.235 0-.426-.19-.426-.426l-.015-.982zm0 3.056c0-.235.19-.426.426-.426h.982c.235 0 .426.19.426.426v.983c0 .235-.19.425-.426.425h-.967c-.235 0-.426-.19-.426-.425l-.015-.983zm0 3.056c0-.115.048-.225.13-.305.084-.08.195-.123.31-.118h.983c.235 0 .426.19.426.425v.983c0 .235-.19.425-.426.425h-.982c-.235 0-.426-.19-.426-.425l-.015-.985z" opacity=".8" transform="translate(-1 -1)"/>
    </g>
</svg>
